<?xml version="1.0" standalone="no"?>
<!DOCTYPE svg PUBLIC "-//W3C//DTD SVG 20010904//EN"
 "http://www.w3.org/TR/2001/REC-SVG-20010904/DTD/svg10.dtd">
<svg version="1.0" xmlns="http://www.w3.org/2000/svg"
 width="70.000000pt" height="70.000000pt" viewBox="0 0 70.000000 70.000000"
 preserveAspectRatio="xMidYMid meet">
<metadata>
Created by potrace 1.11, written by Peter Selinger 2001-2013
</metadata>
<g transform="translate(0.000000,70.000000) scale(0.100000,-0.100000)"
fill="#000000" stroke="none">
<path d="M0 675 c0 -15 6 -25 15 -25 12 0 14 -44 14 -300 0 -256 -2 -300 -14
-300 -9 0 -15 -10 -15 -25 0 -18 5 -25 20 -25 11 0 20 7 20 15 0 12 45 14 310
14 265 0 310 -2 310 -14 0 -8 9 -15 20 -15 15 0 20 7 20 25 0 15 -6 25 -15 25
-12 0 -14 43 -14 300 0 257 2 300 14 300 9 0 15 10 15 25 0 18 -5 25 -20 25
-11 0 -20 -7 -20 -15 0 -12 -45 -14 -310 -14 -265 0 -310 2 -310 14 0 8 -9 15
-20 15 -15 0 -20 -7 -20 -25z m410 -166 c55 -39 78 -71 85 -117 12 -78 -2
-121 -56 -173 -26 -25 -61 -49 -78 -52 -46 -9 -134 3 -148 21 -9 11 -13 60
-13 164 0 184 3 190 108 185 53 -3 76 -9 102 -28z"/>
<path d="M309 433 c-7 -35 -4 -151 3 -160 15 -19 35 -16 58 7 15 15 20 33 20
70 0 37 -5 55 -20 70 -20 20 -59 27 -61 13z"/>
</g>
</svg>
